<svg width="408" height="206" viewBox="0 0 408 206" fill="none" xmlns="http://www.w3.org/2000/svg">
<path d="M5.01521 139.353V60.0374H16.5871V74.0312H17.1002C18.0122 69.3839 19.5323 65.7176 21.6605 63.0324C23.7887 60.3473 26.3349 59.0047 29.2991 59.0047C32.3013 59.0047 34.857 60.3645 36.9662 63.0841C39.0754 65.7692 40.4815 69.4183 41.1845 74.0312H41.6406C42.5337 69.4871 44.1488 65.8553 46.486 63.1357C48.8421 60.3817 51.6259 59.0047 54.8371 59.0047C58.9224 59.0047 62.2382 61.3628 64.7844 66.079C67.3496 70.7609 68.6322 77.4049 68.6322 86.0112V139.353H56.5187V90.3488C56.5187 85.9423 55.8727 82.6375 54.5806 80.4343C53.2885 78.2311 51.6734 77.1295 49.7352 77.1295C47.531 77.1295 45.8114 78.4032 44.5763 80.9507C43.3412 83.4637 42.7237 86.7858 42.7237 90.9168V139.353H30.9522V89.884C30.9522 85.994 30.3347 82.8957 29.0996 80.5892C27.8835 78.2828 26.2779 77.1295 24.2827 77.1295C22.9336 77.1295 21.7175 77.7492 20.6344 78.9885C19.5703 80.1934 18.7248 81.8974 18.0977 84.1006C17.4707 86.2694 17.1572 88.8168 17.1572 91.743V139.353H5.01521Z" fill="white"/>
<path d="M90.7072 140.85C87.914 140.85 85.4248 139.973 83.2396 138.217C81.0544 136.427 79.3253 133.793 78.0522 130.316C76.7981 126.805 76.171 122.433 76.171 117.2C76.171 112.794 76.6176 109.093 77.5106 106.098C78.4037 103.103 79.6198 100.694 81.1589 98.869C82.698 97.0445 84.4462 95.6674 86.4033 94.738C88.3795 93.8085 90.4507 93.1544 92.6168 92.7757C95.163 92.2938 97.2152 91.8463 98.7733 91.4332C100.331 90.9856 101.462 90.3316 102.165 89.4709C102.868 88.6103 103.22 87.3366 103.22 85.6497V85.3399C103.22 82.0695 102.65 79.5393 101.51 77.7492C100.388 75.9591 98.7923 75.064 96.7212 75.064C94.536 75.064 92.7973 75.9418 91.5052 77.6975C90.2131 79.4188 89.3581 81.5876 88.94 84.2039L77.7102 82.5515C78.2802 77.7319 79.4013 73.5665 81.0734 70.0551C82.7456 66.5094 84.9022 63.7898 87.5434 61.8964C90.2036 59.9686 93.2819 59.0047 96.7782 59.0047C99.2104 59.0047 101.538 59.5211 103.761 60.5538C106.003 61.5866 107.989 63.1873 109.718 65.3561C111.466 67.5249 112.844 70.3133 113.851 73.7214C114.858 77.0951 115.362 81.14 115.362 85.8563V139.353H103.847V128.354H103.505C102.802 130.833 101.861 133.019 100.683 134.912C99.5049 136.771 98.0893 138.234 96.4361 139.301C94.783 140.334 92.8733 140.85 90.7072 140.85ZM94.1845 125.669C95.9706 125.669 97.5477 125.032 98.9158 123.758C100.284 122.45 101.358 120.695 102.137 118.491C102.916 116.288 103.305 113.792 103.305 111.004V102.587C102.925 103.034 102.403 103.448 101.738 103.826C101.091 104.17 100.36 104.498 99.5429 104.807C98.7258 105.083 97.9087 105.341 97.0917 105.582C96.2746 105.788 95.5336 105.978 94.8685 106.15C93.4434 106.529 92.1988 107.131 91.1347 107.957C90.0706 108.783 89.2441 109.902 88.655 111.314C88.066 112.691 87.7715 114.412 87.7715 116.477C87.7715 119.472 88.37 121.762 89.5671 123.345C90.7832 124.894 92.3223 125.669 94.1845 125.669Z" fill="white"/>
<path d="M124.782 139.353V60.0374H136.553V73.8763H137.009C137.807 68.9535 139.147 65.2356 141.028 62.7226C142.909 60.1751 145.075 58.9014 147.526 58.9014C148.134 58.9014 148.79 58.9703 149.493 59.108C150.196 59.2457 150.814 59.435 151.346 59.676V79.195C150.776 78.8852 149.987 78.6098 148.98 78.3688C147.973 78.1278 147.051 78.0074 146.215 78.0074C144.429 78.0074 142.833 78.7131 141.427 80.1245C140.04 81.5015 138.938 83.4293 138.121 85.9079C137.323 88.3865 136.924 91.2438 136.924 94.4798V139.353H124.782Z" fill="white"/>
<path d="M175.366 140.902C170.882 140.902 167.024 139.181 163.794 135.738C160.583 132.261 158.113 127.442 156.383 121.28C154.673 115.118 153.818 108.026 153.818 100.005C153.818 91.8807 154.683 84.7547 156.412 78.627C158.16 72.4649 160.64 67.6626 163.851 64.2201C167.062 60.7432 170.882 59.0047 175.309 59.0047C179.128 59.0047 182.473 60.2612 185.342 62.7742C188.211 65.2873 190.482 68.8158 192.154 73.36C193.826 77.9041 194.747 83.24 194.918 89.3676H183.461C183.138 85.4088 182.282 82.2244 180.895 79.8147C179.527 77.3705 177.732 76.1484 175.508 76.1484C173.627 76.1484 171.984 77.0779 170.578 78.9368C169.19 80.7614 168.107 83.4293 167.328 86.9407C166.549 90.452 166.16 94.7035 166.16 99.6952C166.16 104.756 166.54 109.059 167.3 112.605C168.079 116.15 169.171 118.853 170.578 120.712C171.984 122.571 173.627 123.5 175.508 123.5C176.896 123.5 178.14 122.984 179.242 121.951C180.363 120.918 181.285 119.421 182.007 117.459C182.748 115.462 183.233 113.069 183.461 110.281H194.918C194.728 116.34 193.816 121.676 192.182 126.289C190.567 130.867 188.334 134.447 185.484 137.029C182.634 139.611 179.261 140.902 175.366 140.902Z" fill="white"/>
<path d="M202.692 139.353V60.0374H214.834V139.353H202.692ZM208.792 49.8132C206.987 49.8132 205.438 48.7288 204.146 46.56C202.873 44.3568 202.236 41.7233 202.236 38.6594C202.236 35.63 202.873 33.0309 204.146 30.8621C205.438 28.6589 206.987 27.5573 208.792 27.5573C210.597 27.5573 212.136 28.6589 213.409 30.8621C214.701 33.0309 215.347 35.63 215.347 38.6594C215.347 41.7233 214.701 44.3568 213.409 46.56C212.136 48.7288 210.597 49.8132 208.792 49.8132Z" fill="white"/>
<path d="M237.045 140.85C234.252 140.85 231.762 139.973 229.577 138.217C227.392 136.427 225.663 133.793 224.39 130.316C223.136 126.805 222.509 122.433 222.509 117.2C222.509 112.794 222.955 109.093 223.848 106.098C224.741 103.103 225.957 100.694 227.497 98.869C229.036 97.0445 230.784 95.6674 232.741 94.738C234.717 93.8085 236.788 93.1544 238.954 92.7757C241.501 92.2938 243.553 91.8463 245.111 91.4332C246.669 90.9856 247.8 90.3316 248.503 89.4709C249.206 88.6103 249.557 87.3366 249.557 85.6497V85.3399C249.557 82.0695 248.987 79.5393 247.847 77.7492C246.726 75.9591 245.13 75.064 243.059 75.064C240.874 75.064 239.135 75.9418 237.843 77.6975C236.551 79.4188 235.696 81.5876 235.278 84.2039L224.048 82.5515C224.618 77.7319 225.739 73.5665 227.411 70.0551C229.083 66.5094 231.24 63.7898 233.881 61.8964C236.541 59.9686 239.619 59.0047 243.116 59.0047C245.548 59.0047 247.876 59.5211 250.099 60.5538C252.341 61.5866 254.327 63.1873 256.056 65.3561C257.804 67.5249 259.182 70.3133 260.189 73.7214C261.196 77.0951 261.699 81.14 261.699 85.8563V139.353H250.184V128.354H249.842C249.139 130.833 248.199 133.019 247.021 134.912C245.842 136.771 244.427 138.234 242.774 139.301C241.121 140.334 239.211 140.85 237.045 140.85ZM240.522 125.669C242.308 125.669 243.885 125.032 245.253 123.758C246.622 122.45 247.695 120.695 248.474 118.491C249.253 116.288 249.643 113.792 249.643 111.004V102.587C249.263 103.034 248.74 103.448 248.075 103.826C247.429 104.17 246.698 104.498 245.88 104.807C245.063 105.083 244.246 105.341 243.429 105.582C242.612 105.788 241.871 105.978 241.206 106.15C239.781 106.529 238.536 107.131 237.472 107.957C236.408 108.783 235.582 109.902 234.993 111.314C234.404 112.691 234.109 114.412 234.109 116.477C234.109 119.472 234.708 121.762 235.905 123.345C237.121 124.894 238.66 125.669 240.522 125.669Z" fill="white"/>
<path d="M283.261 93.4987V139.353H271.119V60.0374H282.691V74.0312H283.204C284.173 69.4183 285.798 65.7692 288.078 63.0841C290.358 60.3645 293.123 59.0047 296.372 59.0047C299.412 59.0047 302.063 60.2096 304.324 62.6193C306.585 65.0291 308.343 68.4716 309.597 72.9469C310.851 77.3877 311.478 82.6892 311.478 88.8513V139.353H299.336V92.7757C299.355 87.9218 298.671 84.135 297.284 81.4154C295.897 78.6614 293.988 77.2844 291.555 77.2844C289.921 77.2844 288.477 77.9213 287.223 79.195C285.988 80.4687 285.019 82.3277 284.316 84.7719C283.632 87.1816 283.28 90.0906 283.261 93.4987Z" fill="white"/>
<path d="M333.532 140.85C330.739 140.85 328.25 139.973 326.064 138.217C323.879 136.427 322.15 133.793 320.877 130.316C319.623 126.805 318.996 122.433 318.996 117.2C318.996 112.794 319.442 109.093 320.335 106.098C321.229 103.103 322.445 100.694 323.984 98.869C325.523 97.0445 327.271 95.6674 329.228 94.738C331.204 93.8085 333.275 93.1544 335.442 92.7757C337.988 92.2938 340.04 91.8463 341.598 91.4332C343.156 90.9856 344.287 90.3316 344.99 89.4709C345.693 88.6103 346.044 87.3366 346.044 85.6497V85.3399C346.044 82.0695 345.474 79.5393 344.334 77.7492C343.213 75.9591 341.617 75.064 339.546 75.064C337.361 75.064 335.622 75.9418 334.33 77.6975C333.038 79.4188 332.183 81.5876 331.765 84.2039L320.535 82.5515C321.105 77.7319 322.226 73.5665 323.898 70.0551C325.57 66.5094 327.727 63.7898 330.368 61.8964C333.028 59.9686 336.107 59.0047 339.603 59.0047C342.035 59.0047 344.363 59.5211 346.586 60.5538C348.828 61.5866 350.814 63.1873 352.543 65.3561C354.291 67.5249 355.669 70.3133 356.676 73.7214C357.683 77.0951 358.186 81.14 358.186 85.8563V139.353H346.672V128.354H346.329C345.626 130.833 344.686 133.019 343.508 134.912C342.33 136.771 340.914 138.234 339.261 139.301C337.608 140.334 335.698 140.85 333.532 140.85ZM337.009 125.669C338.795 125.669 340.372 125.032 341.741 123.758C343.109 122.45 344.182 120.695 344.961 118.491C345.74 116.288 346.13 113.792 346.13 111.004V102.587C345.75 103.034 345.227 103.448 344.562 103.826C343.916 104.17 343.185 104.498 342.368 104.807C341.551 105.083 340.734 105.341 339.916 105.582C339.099 105.788 338.358 105.978 337.693 106.15C336.268 106.529 335.024 107.131 333.96 107.957C332.895 108.783 332.069 109.902 331.48 111.314C330.891 112.691 330.596 114.412 330.596 116.477C330.596 119.472 331.195 121.762 332.392 123.345C333.608 124.894 335.147 125.669 337.009 125.669Z" fill="white"/>
<path d="M404.032 82.6547L392.916 83.894C392.726 82.1728 392.318 80.6237 391.691 79.2467C391.064 77.8352 390.237 76.7164 389.211 75.8902C388.204 75.0296 386.997 74.5993 385.591 74.5993C383.71 74.5993 382.124 75.3222 380.831 76.768C379.539 78.1795 378.893 80.0729 378.893 82.4482C378.893 84.3416 379.311 85.9423 380.147 87.2505C380.983 88.5587 382.418 89.6086 384.451 90.4004L392.375 93.2921C396.631 94.8757 399.804 97.4231 401.895 100.934C403.985 104.446 405.03 109.059 405.03 114.773C405.03 119.972 404.184 124.533 402.493 128.457C400.821 132.382 398.522 135.446 395.596 137.649C392.688 139.818 389.335 140.902 385.534 140.902C379.739 140.902 375.121 138.716 371.682 134.344C368.262 129.938 366.257 123.948 365.668 116.374L377.611 115.238C377.972 118.44 378.846 120.884 380.233 122.571C381.62 124.223 383.397 125.049 385.563 125.049C387.691 125.049 389.401 124.309 390.693 122.829C392.004 121.314 392.669 119.369 392.688 116.994C392.669 114.997 392.204 113.362 391.292 112.088C390.38 110.78 388.974 109.782 387.073 109.093L379.492 106.356C375.216 104.807 372.034 102.122 369.944 98.301C367.872 94.4798 366.837 89.6086 366.837 83.6875C366.837 78.5926 367.597 74.2034 369.117 70.5199C370.656 66.8364 372.813 63.9963 375.587 61.9997C378.38 60.003 381.648 59.0047 385.392 59.0047C390.921 59.0047 395.273 61.1218 398.446 65.3561C401.638 69.5904 403.5 75.3566 404.032 82.6547Z" fill="white"/>
<path d="M0 175.706H408V206H0V175.706Z" fill="white"/>
<path d="M0 0H408V30.2941H0V0Z" fill="white"/>
</svg>
